<svg id="Logo" xmlns="http://www.w3.org/2000/svg" xmlns:xlink="http://www.w3.org/1999/xlink" width="220" height="41" viewBox="0 0 220 41">
  <defs>
    <style>
      .cls-1 {
        fill: #ff4f4f;
      }

      .cls-1, .cls-2, .cls-3 {
        fill-rule: evenodd;
      }

      .cls-2 {
        fill: url(#linear-gradient);
      }

      .cls-3 {
        fill: #fff;
      }
    </style>
    <linearGradient id="linear-gradient" x1="859.563" y1="137.831" x2="876" y2="131.451" gradientUnits="userSpaceOnUse">
      <stop offset="NaN" stop-color="#ff4f4f"/>
      <stop offset="Infinity"/>
    </linearGradient>
  </defs>
  <g id="Group">
    <path id="Vector" class="cls-1" d="M855.035,114h38.584a4.031,4.031,0,0,1,4.035,4.027v0.006a4.032,4.032,0,0,1-4.035,4.028H855.035A4.031,4.031,0,0,1,851,118.033v-0.006A4.031,4.031,0,0,1,855.035,114Z" transform="translate(-851 -114)"/>
    <path id="Vector-2" data-name="Vector" class="cls-1" d="M884.693,129.22H863.96a4.751,4.751,0,0,0-4.4,4.407,4.825,4.825,0,0,0,2.918,4.152,4.51,4.51,0,0,0,1.331.338l9.906-.053a1.446,1.446,0,0,1,1.372,2.242l-0.831,1.37-3.875,6.667a4.443,4.443,0,0,0,7.44,4.834l10.364-17.925a4.024,4.024,0,0,0-3.489-6.032h0Z" transform="translate(-851 -114)"/>
    <path id="Vector-3" data-name="Vector" class="cls-2" d="M875.994,136.2a9.441,9.441,0,0,0-3.084-6.975H864a4.489,4.489,0,0,0-4.445,4.265,4.685,4.685,0,0,0,4.16,4.6l10.209-.042a1.4,1.4,0,0,1,.849.279,1.459,1.459,0,0,1,.559.973,1.76,1.76,0,0,1,0,.308,1.931,1.931,0,0,1-.065.32,0.368,0.368,0,0,1-.048.137V140A7.871,7.871,0,0,0,875.994,136.2Z" transform="translate(-851 -114)"/>
    <path id="Vector-4" data-name="Vector" class="cls-3" d="M909.039,143.064V122.381a0.848,0.848,0,0,1,.85-0.848h4.588a0.848,0.848,0,0,1,.85.848V126.8a0.386,0.386,0,0,0,.386.386h3.975a0.849,0.849,0,0,1,.838.848v3.677a0.85,0.85,0,0,1-.85.843h-3.963a0.384,0.384,0,0,0-.386.385v9.069c0,1.448.594,2.148,2.026,2.148a6.368,6.368,0,0,0,1.985-.309,0.855,0.855,0,0,1,.763.116,0.851,0.851,0,0,1,.354.685v3.262a0.865,0.865,0,0,1-.128.445,0.855,0.855,0,0,1-.342.314,9.432,9.432,0,0,1-4.492,1.015c-3.851,0-6.454-1.525-6.454-6.62h0Zm16.978-15.878h4.611a0.848,0.848,0,0,1,.85.848v2.022a0.367,0.367,0,0,0,.517.351,0.357,0.357,0,0,0,.178-0.167,6.408,6.408,0,0,1,5.491-3.464,0.865,0.865,0,0,1,.333.063,0.84,0.84,0,0,1,.282.188,0.855,0.855,0,0,1,.186.282,0.844,0.844,0,0,1,.061.333v5.694h-0.333c-4.16,0-6.739,2.521-6.739,7.806v7.326a0.849,0.849,0,0,1-.826.848h-4.587a0.85,0.85,0,0,1-.6-0.249,0.826,0.826,0,0,1-.184-0.275,0.841,0.841,0,0,1-.065-0.324V128.034a0.847,0.847,0,0,1,.826-0.848h0Zm15.034,11.133v-0.083c0-7.391,4.837-11.436,10.1-11.436a8.384,8.384,0,0,1,6.317,2.622,0.333,0.333,0,0,0,.384.1,0.338,0.338,0,0,0,.161-0.133,0.332,0.332,0,0,0,.049-0.2V128a0.848,0.848,0,0,1,.85-0.848H963.5a0.847,0.847,0,0,1,.849.848v20.464a0.848,0.848,0,0,1-.849.848h-4.588a0.85,0.85,0,0,1-.85-0.848v-1.382a0.325,0.325,0,0,0-.058-0.2,0.333,0.333,0,0,0-.536-0.018,7.988,7.988,0,0,1-6.317,2.853C945.971,149.725,941.051,145.68,941.051,138.319Zm17.079,0v-0.083c0-3.678-2.443-6.109-5.378-6.109s-5.414,2.372-5.414,6.109v0.083c0,3.672,2.478,6.109,5.414,6.109S958.13,141.967,958.13,138.319Zm10.756,0.053v-0.053A11.374,11.374,0,0,1,980.5,126.8a11.056,11.056,0,0,1,8.284,3.114,0.853,0.853,0,0,1,0,1.186l-2.7,2.9a0.858,0.858,0,0,1-1.189.035,6.089,6.089,0,0,0-4.439-1.827c-3.143,0-5.348,2.765-5.348,6.027v0.083c0,3.381,2.187,6.109,5.622,6.109a6.541,6.541,0,0,0,4.5-1.832,0.856,0.856,0,0,1,1.153.047l2.531,2.562a0.841,0.841,0,0,1,0,1.187,10.986,10.986,0,0,1-8.474,3.434,11.272,11.272,0,0,1-11.557-11.454h0Zm25.718,4.692V122.381a0.848,0.848,0,0,1,.85-0.848h4.6a0.824,0.824,0,0,1,.59.25,0.843,0.843,0,0,1,.25.6v4.472a0.345,0.345,0,0,0,.1.236,0.356,0.356,0,0,0,.24.1h4.03a0.857,0.857,0,0,1,.84.848v3.677a0.832,0.832,0,0,1-.25.594,0.855,0.855,0,0,1-.6.249h-4.03a0.318,0.318,0,0,0-.23.1,0.31,0.31,0,0,0-.1.238v9.116c0,1.448.59,2.148,2.02,2.148a6.339,6.339,0,0,0,1.99-.309,0.815,0.815,0,0,1,.39-0.033,0.877,0.877,0,0,1,.37.149,0.825,0.825,0,0,1,.26.3,0.854,0.854,0,0,1,.09.385v3.262a0.866,0.866,0,0,1-.12.445,0.933,0.933,0,0,1-.35.314,9.41,9.41,0,0,1-4.49,1.015c-3.837,0-6.446-1.525-6.446-6.62h0Zm17.106-23.886h4.92a0.856,0.856,0,0,1,.6.249,0.844,0.844,0,0,1,.25.6v3.879a0.846,0.846,0,0,1-.25.6,0.86,0.86,0,0,1-.6.249h-4.92a0.844,0.844,0,0,1-.33-0.063,0.9,0.9,0,0,1-.28-0.184,0.776,0.776,0,0,1-.18-0.276,0.739,0.739,0,0,1-.07-0.326v-3.879a0.742,0.742,0,0,1,.07-0.326,0.785,0.785,0,0,1,.18-0.276,0.916,0.916,0,0,1,.28-0.183,0.826,0.826,0,0,1,.33-0.063h0Zm0.16,8.008h4.6a0.824,0.824,0,0,1,.59.25,0.843,0.843,0,0,1,.25.6v20.434a0.841,0.841,0,0,1-.25.6,0.83,0.83,0,0,1-.59.251h-4.6a0.86,0.86,0,0,1-.6-0.249,0.844,0.844,0,0,1-.25-0.6V128.034a0.846,0.846,0,0,1,.25-0.6,0.859,0.859,0,0,1,.6-0.248h0Zm10.27,11.186v-0.053c0-6.359,5.13-11.519,12.03-11.519s11.95,5.077,11.95,11.436v0.083c0,6.352-5.12,11.513-12.03,11.513S1022.14,144.731,1022.14,138.372Zm17.78,0v-0.053a5.9,5.9,0,0,0-5.83-6.11c-3.6,0-5.75,2.765-5.75,6.027v0.083a5.9,5.9,0,0,0,5.83,6.109c3.61-.023,5.76-2.793,5.76-6.056h-0.01Zm11.61-11.186h4.6a0.859,0.859,0,0,1,.6.248,0.846,0.846,0,0,1,.25.6v1.388a0.275,0.275,0,0,0,.05.2,0.335,0.335,0,0,0,.17.124,0.316,0.316,0,0,0,.2.007,0.308,0.308,0,0,0,.17-0.114,7.446,7.446,0,0,1,5.9-2.829c4.75,0,7.53,3.138,7.53,8.215v13.447a0.852,0.852,0,0,1-.85.848h-4.59a0.86,0.86,0,0,1-.6-0.249,0.844,0.844,0,0,1-.25-0.6v-11.5c0-2.965-1.41-4.5-3.8-4.5s-3.93,1.531-3.93,4.5v11.5a0.9,0.9,0,0,1-.06.324,0.965,0.965,0,0,1-.19.275,0.858,0.858,0,0,1-.27.184,0.9,0.9,0,0,1-.33.065h-4.59a0.808,0.808,0,0,1-.33-0.058,0.821,0.821,0,0,1-.29-0.182,0.979,0.979,0,0,1-.19-0.278,0.938,0.938,0,0,1-.07-0.33V128.034a0.928,0.928,0,0,1,.07-0.329,0.975,0.975,0,0,1,.19-0.277,0.9,0.9,0,0,1,.28-0.183,0.854,0.854,0,0,1,.33-0.059h0Z" transform="translate(-851 -114)"/>
  </g>
</svg>
